<svg width="62" height="24" viewBox="0 0 62 24" fill="none" xmlns="http://www.w3.org/2000/svg">
<path fill-rule="evenodd" clip-rule="evenodd" d="M0 0V15.8321H12.3272V11.3087H4.93106V4.52345H12.3272V0H0Z" fill="white"/>
<path fill-rule="evenodd" clip-rule="evenodd" d="M16.0743 0V9.04688H21.0049V4.52345H25.936V0H16.0743Z" fill="white"/>
<path fill-rule="evenodd" clip-rule="evenodd" d="M48.1304 0V9.04688H53.0615V4.52345H57.9926V0H48.1304Z" fill="white"/>
<path fill-rule="evenodd" clip-rule="evenodd" d="M39.4479 0V3.39259H35.7496V0H30.8186V15.8321H44.379V0H39.4479ZM35.7496 11.3087H39.4479V7.9164H35.7496V11.3087Z" fill="white"/>
<path fill-rule="evenodd" clip-rule="evenodd" d="M54.1009 19.3334C52.9594 19.3334 52.0343 18.4378 52.0343 17.3335C52.0343 16.2289 52.9594 15.3337 54.1009 15.3337C55.2424 15.3337 56.1674 16.2289 56.1674 17.3335C56.1674 18.4378 55.2424 19.3334 54.1009 19.3334ZM54.1009 10.6667C50.2961 10.6667 47.212 13.6516 47.212 17.3335C47.212 21.015 50.2961 23.9999 54.1009 23.9999C57.9057 23.9999 60.9898 21.015 60.9898 17.3335C60.9898 13.6516 57.9057 10.6667 54.1009 10.6667Z" fill="white"/>
</svg>
