<svg width="62" height="26" viewBox="0 0 62 26" fill="none" xmlns="http://www.w3.org/2000/svg">
<path fill-rule="evenodd" clip-rule="evenodd" d="M0 1V16.8321H12.3272V12.3087H4.93106V5.52345H12.3272V1H0Z" fill="white"/>
<path fill-rule="evenodd" clip-rule="evenodd" d="M16.0743 1V10.0469H21.0049V5.52345H25.936V1H16.0743Z" fill="white"/>
<path fill-rule="evenodd" clip-rule="evenodd" d="M48.1304 1V10.0469H53.0615V5.52345H57.9926V1H48.1304Z" fill="white"/>
<path fill-rule="evenodd" clip-rule="evenodd" d="M39.4479 1V4.39259H35.7496V1H30.8186V16.8321H44.379V1H39.4479ZM35.7496 12.3087H39.4479V8.9164H35.7496V12.3087Z" fill="white"/>
<path fill-rule="evenodd" clip-rule="evenodd" d="M54.1009 20.3334C52.9594 20.3334 52.0344 19.4378 52.0344 18.3335C52.0344 17.2289 52.9594 16.3337 54.1009 16.3337C55.2424 16.3337 56.1674 17.2289 56.1674 18.3335C56.1674 19.4378 55.2424 20.3334 54.1009 20.3334ZM54.1009 11.6667C50.2961 11.6667 47.212 14.6516 47.212 18.3335C47.212 22.015 50.2961 24.9999 54.1009 24.9999C57.9057 24.9999 60.9898 22.015 60.9898 18.3335C60.9898 14.6516 57.9057 11.6667 54.1009 11.6667Z" fill="white"/>
</svg>
