<svg width="24" height="24" viewBox="0 0 24 24" fill="none" xmlns="http://www.w3.org/2000/svg">
<mask id="mask0_0_514" style="mask-type:luminance" maskUnits="userSpaceOnUse" x="1" y="4" width="23" height="16">
<path fill-rule="evenodd" clip-rule="evenodd" d="M24 4V20H1V4H24ZM22 6H3V7.5H22V6ZM22 9.5V10.5H3V9.5H22ZM22 12.5V18H3V12.5H22ZM19.5 14C20.3284 14 21 14.6716 21 15.5C21 16.3284 20.3284 17 19.5 17C18.6716 17 18 16.3284 18 15.5C18 14.6716 18.6716 14 19.5 14ZM19.5 15C19.2239 15 19 15.2239 19 15.5C19 15.7761 19.2239 16 19.5 16C19.7761 16 20 15.7761 20 15.5C20 15.2239 19.7761 15 19.5 15Z" fill="white"/>
</mask>
<g mask="url(#mask0_0_514)">
<rect width="24" height="24" fill="white" fill-opacity="0.7"/>
</g>
</svg>
