<svg width="16" height="16" viewBox="0 0 16 16" fill="none" xmlns="http://www.w3.org/2000/svg">
<path fill-rule="evenodd" clip-rule="evenodd" d="M7.33329 0.666666V7.33333H0.666626V0.666666H7.33329ZM5.99996 2H1.99996V6H5.99996V2ZM7.33329 8.66667V15.3333H0.666626V8.66667H7.33329ZM5.99996 10H1.99996V14H5.99996V10ZM15.3333 15.3333V8.66667H8.66663V15.3333H15.3333ZM9.99996 10H14V14H9.99996V10ZM15.3333 0.666666V7.33333H8.66663V0.666666H15.3333ZM14 2H9.99996V6H14V2Z" fill="#026CFF"/>
<mask id="mask0_0_213" style="mask-type:luminance" maskUnits="userSpaceOnUse" x="0" y="0" width="16" height="16">
<path fill-rule="evenodd" clip-rule="evenodd" d="M7.33329 0.666666V7.33333H0.666626V0.666666H7.33329ZM5.99996 2H1.99996V6H5.99996V2ZM7.33329 8.66667V15.3333H0.666626V8.66667H7.33329ZM5.99996 10H1.99996V14H5.99996V10ZM15.3333 15.3333V8.66667H8.66663V15.3333H15.3333ZM9.99996 10H14V14H9.99996V10ZM15.3333 0.666666V7.33333H8.66663V0.666666H15.3333ZM14 2H9.99996V6H14V2Z" fill="white"/>
</mask>
<g mask="url(#mask0_0_213)">
<rect width="16" height="16" fill="#026CFF"/>
</g>
</svg>
