<svg width="36" height="36" viewBox="0 0 36 36" fill="none" xmlns="http://www.w3.org/2000/svg">
<g id="Icon/g-24/&#236;&#149;&#140;&#235;&#166;&#188;">
<g id="Icon/24px/&#236;&#149;&#140;&#235;&#166;&#188;">
<mask id="mask0_0_566" style="mask-type:luminance" maskUnits="userSpaceOnUse" x="1" y="3" width="35" height="33">
<path id="Mask" fill-rule="evenodd" clip-rule="evenodd" d="M23.2673 7.5C23.2673 5.01472 21.2526 3 18.7673 3C16.2821 3 14.2673 5.01472 14.2673 7.5H11.0623L1.5 30H11.2673C11.2673 30 14.2673 36 18.7673 36C23.2673 36 26.2673 30 26.2673 30H35.9978L26.8354 7.5H23.2673ZM20.2673 7.5C20.2673 6.67157 19.5958 6 18.7673 6C17.9389 6 17.2673 6.67157 17.2673 7.5H20.2673ZM23.2673 30H14.2673C14.2673 30 15.6831 33 18.7673 33C21.8516 33 23.2673 30 23.2673 30ZM24.8183 10.5L31.5353 27H6.03383L13.0463 10.5H24.8183Z" fill="white"/>
</mask>
<g mask="url(#mask0_0_566)">
<rect id="Rectangle Copy" width="36" height="36" fill="white" fill-opacity="0.7"/>
</g>
</g>
</g>
</svg>
