<svg width="24" height="24" viewBox="0 0 24 24" fill="none" xmlns="http://www.w3.org/2000/svg">
<g id="Icon/g-16/&#235;&#139;&#171;&#234;&#184;&#176;">
<path id="Mask" fill-rule="evenodd" clip-rule="evenodd" d="M3.16579 1.5L1.5 3.16579L10.3342 12L1.5 20.8342L3.16579 22.5L12 13.6658L20.8342 22.5L22.5 20.8342L13.6658 12L22.5 3.16579L20.8342 1.5L12 10.3342L3.16579 1.5Z" fill="white" fill-opacity="0.8"/>
<mask id="mask0_0_638" style="mask-type:luminance" maskUnits="userSpaceOnUse" x="1" y="1" width="22" height="22">
<path id="Mask_2" fill-rule="evenodd" clip-rule="evenodd" d="M3.16579 1.5L1.5 3.16579L10.3342 12L1.5 20.8342L3.16579 22.5L12 13.6658L20.8342 22.5L22.5 20.8342L13.6658 12L22.5 3.16579L20.8342 1.5L12 10.3342L3.16579 1.5Z" fill="white"/>
</mask>
<g mask="url(#mask0_0_638)">
<rect id="Rectangle Copy 2" width="24" height="24" fill="white" fill-opacity="0.7"/>
</g>
</g>
</svg>
