<svg width="36" height="36" viewBox="0 0 36 36" fill="none" xmlns="http://www.w3.org/2000/svg">
<g id="Icon/g-24/&#236;&#152;&#136;&#234;&#184;&#136;">
<g id="Icon/24px/&#236;&#152;&#136;&#234;&#184;&#136;">
<mask id="mask0_0_371" style="mask-type:luminance" maskUnits="userSpaceOnUse" x="1" y="3" width="35" height="33">
<path id="Mask" fill-rule="evenodd" clip-rule="evenodd" d="M30.75 3H27.75V16.6287L24.8787 13.7574L22.7574 15.8787L29.1213 22.2426L29.25 22.114L29.3787 22.2426L35.7426 15.8787L33.6213 13.7574L30.75 16.6287V3ZM12.75 13.5C18.9632 13.5 24 18.5368 24 24.75C24 30.9632 18.9632 36 12.75 36C6.5368 36 1.5 30.9632 1.5 24.75C1.5 18.5368 6.5368 13.5 12.75 13.5ZM12.75 16.5C8.19365 16.5 4.5 20.1937 4.5 24.75C4.5 29.3064 8.19365 33 12.75 33C17.3063 33 21 29.3064 21 24.75C21 20.1937 17.3063 16.5 12.75 16.5Z" fill="white"/>
</mask>
<g mask="url(#mask0_0_371)">
<rect id="Rectangle" width="36" height="36" fill="white" fill-opacity="0.7"/>
</g>
</g>
</g>
</svg>
