<svg width="36" height="36" viewBox="0 0 36 36" fill="none" xmlns="http://www.w3.org/2000/svg">
<g id="Icon/g-24/&#236;&#153;&#184;&#237;&#153;&#152;">
<g id="Icon/24px/&#236;&#153;&#184;&#237;&#153;&#152;">
<mask id="mask0_0_458" style="mask-type:luminance" maskUnits="userSpaceOnUse" x="1" y="1" width="34" height="34">
<path id="Mask" fill-rule="evenodd" clip-rule="evenodd" d="M9.75 1.5C14.3063 1.5 18 5.19365 18 9.75C18 14.3063 14.3063 18 9.75 18C5.19365 18 1.5 14.3063 1.5 9.75C1.5 5.19365 5.19365 1.5 9.75 1.5ZM9.75 4.5C6.8505 4.5 4.5 6.8505 4.5 9.75C4.5 12.6495 6.8505 15 9.75 15C12.6495 15 15 12.6495 15 9.75C15 6.8505 12.6495 4.5 9.75 4.5ZM26.25 18C30.8064 18 34.5 21.6937 34.5 26.25C34.5 30.8064 30.8064 34.5 26.25 34.5C21.6937 34.5 18 30.8064 18 26.25C18 21.6937 21.6937 18 26.25 18ZM26.25 21C23.3505 21 21 23.3505 21 26.25C21 29.1495 23.3505 31.5 26.25 31.5C29.1495 31.5 31.5 29.1495 31.5 26.25C31.5 23.3505 29.1495 21 26.25 21ZM19.8107 11.1213V8.12132H27.4393L25.6287 6.31066L27.75 4.18934L33.0533 9.49264L32.9246 9.62132L33.0533 9.75L27.75 15.0533L25.6287 12.932L27.4393 11.1213H19.8107ZM8.92462 24.6213H16.5533V27.6213H8.92462L10.7353 29.432L8.61396 31.5533L3.31066 26.25L3.43934 26.1213L3.31066 25.9926L8.61396 20.6893L10.7353 22.8107L8.92462 24.6213Z" fill="white"/>
</mask>
<g mask="url(#mask0_0_458)">
<rect id="Rectangle Copy" width="36" height="36" fill="white" fill-opacity="0.7"/>
</g>
</g>
</g>
</svg>
