<svg width="36" height="36" viewBox="0 0 36 36" fill="none" xmlns="http://www.w3.org/2000/svg">
<g id="Icon/g-24/&#235;&#179;&#180;&#237;&#151;&#152;">
<g id="Icon/24px/&#235;&#179;&#180;&#237;&#151;&#152;">
<mask id="mask0_0_491" style="mask-type:luminance" maskUnits="userSpaceOnUse" x="1" y="4" width="35" height="29">
<path id="Mask" fill-rule="evenodd" clip-rule="evenodd" d="M36 4.5V33H1.5V4.5H36ZM33 7.5H4.5V30H33V7.5ZM19.1838 12C22.0833 12 24.4338 14.3505 24.4338 17.25C24.4338 20.1495 22.0833 22.5 19.1838 22.5C16.2843 22.5 13.9338 20.1495 13.9338 17.25C13.9338 14.3505 16.2843 12 19.1838 12ZM19.1838 15C17.9412 15 16.9338 16.0074 16.9338 17.25C16.9338 18.4926 17.9412 19.5 19.1838 19.5C20.4265 19.5 21.4338 18.4926 21.4338 17.25C21.4338 16.0074 20.4265 15 19.1838 15ZM15.4926 23.25L13.3713 21.1287L10.5 24L12.6213 26.1213L15.4926 23.25ZM24.9963 21.1287L22.875 23.25L25.7463 26.1213L27.8676 24L24.9963 21.1287Z" fill="white"/>
</mask>
<g mask="url(#mask0_0_491)">
<rect id="Rectangle Copy 2" width="36" height="36" fill="white" fill-opacity="0.7"/>
</g>
</g>
</g>
</svg>
