<svg width="36" height="36" viewBox="0 0 36 36" fill="none" xmlns="http://www.w3.org/2000/svg">
<g id="Icon/g-24/&#235;&#140;&#128;&#236;&#182;&#156;">
<g id="Icon/24px/&#235;&#140;&#128;&#236;&#182;&#156;">
<mask id="mask0_0_443" style="mask-type:luminance" maskUnits="userSpaceOnUse" x="1" y="1" width="35" height="34">
<path id="Mask" fill-rule="evenodd" clip-rule="evenodd" d="M34.209 10.5C34.209 5.52944 30.1795 1.5 25.209 1.5C20.2384 1.5 16.209 5.52944 16.209 10.5C16.209 15.4706 20.2384 19.5 25.209 19.5C30.1795 19.5 34.209 15.4706 34.209 10.5ZM19.209 10.5C19.209 7.18629 21.8953 4.5 25.209 4.5C28.5227 4.5 31.209 7.18629 31.209 10.5C31.209 13.8137 28.5227 16.5 25.209 16.5C21.8953 16.5 19.209 13.8137 19.209 10.5ZM7.10253 18.7087L7.58034 18.6411L8.48368 18.5273C9.93066 18.3619 11.083 18.3204 11.9152 18.4362C16.4369 19.0652 20.329 21.0044 22.1129 23.2395C26.922 22.341 30.7505 22.5552 33.1784 23.7139C35.9409 25.0322 36.6903 27.7723 34.4861 29.5482C33.64 30.2299 32.213 30.8964 30.3835 31.5106L29.5111 31.7902C28.6115 32.0658 27.632 32.329 26.5902 32.5762L25.5282 32.8179C25.1677 32.8966 24.801 32.9733 24.4286 33.0481L23.2952 33.2659L22.1319 33.4707C21.9358 33.5037 21.7385 33.5361 21.5403 33.5679L20.3396 33.7514C19.5319 33.8688 18.7109 33.9761 17.8816 34.0722C16.9492 34.1802 16.012 34.0618 15.0211 33.7525L14.6265 33.6225C14.5624 33.6002 14.4989 33.5774 14.4355 33.5539L14.0519 33.4037C13.9868 33.3768 13.9209 33.3488 13.8535 33.3196L13.1969 33.0167L12.6792 32.7606L11.7247 32.2711C11.4594 32.1334 11.2116 32.007 10.9791 31.8911L10.3249 31.5744C9.09819 31.0015 8.33275 30.7833 7.5086 30.7688C7.09549 30.7616 6.52596 30.8353 5.85333 30.9812C5.39848 31.0799 4.91095 31.2081 4.40579 31.3589C4.10364 31.449 3.80673 31.5436 3.52079 31.6397L2.84178 31.8777L2.59009 31.9721L1.5 29.1771L1.94345 29.0123L2.10024 28.9564C2.55528 28.7954 3.04356 28.6346 3.54814 28.4841C4.12204 28.3128 4.68182 28.1656 5.2172 28.0494C6.0967 27.8586 6.87943 27.7573 7.56122 27.7693C9.08303 27.796 10.2621 28.1828 12.2605 29.1774L14.2002 30.1668L14.8087 30.459L15.1496 30.6092L15.4611 30.7333C15.5116 30.7522 15.5617 30.7705 15.6118 30.7881L15.9151 30.8888C16.5313 31.0811 17.0575 31.1476 17.5363 31.0921L18.1105 31.0235L19.25 30.8746L20.3739 30.7114L21.4779 30.5349L22.5579 30.3464C22.7356 30.314 22.9122 30.2812 23.0875 30.248L24.1232 30.0436L25.1241 29.83L26.0857 29.6086C26.2425 29.571 26.3975 29.5332 26.5506 29.4952L27.4455 29.2639L28.2905 29.0276L29.0813 28.7874C30.6059 28.3039 31.7795 27.8042 32.4476 27.3301L32.7237 27.1165C32.746 27.0995 32.7539 27.0952 32.7574 27.0968L32.735 27.0436C32.6498 26.8932 32.3822 26.658 31.8864 26.4214C30.1765 25.6054 27.1378 25.4115 23.1389 26.103C22.9909 27.5023 21.759 28.4663 19.9642 28.5997C18.2014 28.7308 15.7178 28.1656 12.5946 26.8983L12.0368 26.6673L13.2034 23.9035C16.1906 25.1643 18.4421 25.7046 19.7418 25.6079L19.884 25.5947L20.073 25.566L20.0229 25.4558C19.2915 24.0303 16.0424 22.1419 11.9442 21.4743L11.5019 21.4076C11.1188 21.3543 10.53 21.3589 9.78185 21.4164L9.10261 21.4785C8.98326 21.4909 8.86092 21.5044 8.73573 21.519L7.95151 21.6184C7.81547 21.637 7.67685 21.6566 7.53578 21.6772C6.91209 21.7682 6.2542 21.8762 5.57433 21.9975C5.05299 22.0906 4.53709 22.1881 4.03674 22.2872L2.37405 22.6341L1.71603 19.7072L2.6913 19.4987C3.44007 19.3438 4.23629 19.1889 5.04726 19.0442C5.75673 18.9176 6.44545 18.8046 7.10253 18.7087Z" fill="white"/>
</mask>
<g mask="url(#mask0_0_443)">
<rect id="Rectangle" width="36" height="36" fill="white" fill-opacity="0.7"/>
</g>
</g>
</g>
</svg>
