<svg width="36" height="36" viewBox="0 0 36 36" fill="none" xmlns="http://www.w3.org/2000/svg">
<g id="Icon/g-24/&#235;&#169;&#148;&#235;&#137;&#180;">
<path id="Mask" fill-rule="evenodd" clip-rule="evenodd" d="M16.5 1.5V16.5H1.5V1.5H16.5ZM13.5 4.5H4.5V13.5H13.5V4.5ZM16.5 19.5V34.5H1.5V19.5H16.5ZM13.5 22.5H4.5V31.5H13.5V22.5ZM34.5 34.5V19.5H19.5V34.5H34.5ZM22.5 22.5H31.5V31.5H22.5V22.5ZM34.5 1.5V16.5H19.5V1.5H34.5ZM31.5 4.5H22.5V13.5H31.5V4.5Z" fill="white" fill-opacity="0.8"/>
<mask id="mask0_0_602" style="mask-type:luminance" maskUnits="userSpaceOnUse" x="1" y="1" width="34" height="34">
<path id="Mask_2" fill-rule="evenodd" clip-rule="evenodd" d="M16.5 1.5V16.5H1.5V1.5H16.5ZM13.5 4.5H4.5V13.5H13.5V4.5ZM16.5 19.5V34.5H1.5V19.5H16.5ZM13.5 22.5H4.5V31.5H13.5V22.5ZM34.5 34.5V19.5H19.5V34.5H34.5ZM22.5 22.5H31.5V31.5H22.5V22.5ZM34.5 1.5V16.5H19.5V1.5H34.5ZM31.5 4.5H22.5V13.5H31.5V4.5Z" fill="white"/>
</mask>
<g mask="url(#mask0_0_602)">
<rect id="Rectangle Copy 2" width="36" height="36" fill="white" fill-opacity="0.8"/>
</g>
</g>
</svg>
