<svg width="36" height="36" viewBox="0 0 36 36" fill="none" xmlns="http://www.w3.org/2000/svg">
<g id="Icon/g-24/&#236;&#176;&#190;&#234;&#184;&#176;">
<g id="Icon/24px/&#236;&#176;&#190;&#234;&#184;&#176;">
<mask id="mask0_0_589" style="mask-type:luminance" maskUnits="userSpaceOnUse" x="1" y="1" width="34" height="33">
<path id="Mask" fill-rule="evenodd" clip-rule="evenodd" d="M14.25 1.5C21.2916 1.5 27 7.20837 27 14.25C27 16.8448 26.2249 19.2585 24.8936 21.2723L34.864 31.2426L32.7426 33.364L22.9496 23.571C20.6715 25.6982 17.6128 27 14.25 27C7.20837 27 1.5 21.2916 1.5 14.25C1.5 7.20837 7.20837 1.5 14.25 1.5ZM14.25 4.5C8.86522 4.5 4.5 8.86522 4.5 14.25C4.5 19.6348 8.86522 24 14.25 24C19.6348 24 24 19.6348 24 14.25C24 8.86522 19.6348 4.5 14.25 4.5Z" fill="white"/>
</mask>
<g mask="url(#mask0_0_589)">
<rect id="Rectangle Copy 2" width="36" height="36" fill="white" fill-opacity="0.7"/>
</g>
</g>
</g>
</svg>
