<svg width="36" height="36" viewBox="0 0 36 36" fill="none" xmlns="http://www.w3.org/2000/svg">
<g id="Icon/g-24/&#234;&#179;&#160;&#234;&#176;&#157;&#236;&#132;&#188;&#237;&#132;&#176;">
<g id="Icon/24px/&#234;&#179;&#160;&#234;&#176;&#157;&#236;&#132;&#188;&#237;&#132;&#176;">
<mask id="mask0_0_535" style="mask-type:luminance" maskUnits="userSpaceOnUse" x="1" y="6" width="34" height="24">
<path id="Mask" fill-rule="evenodd" clip-rule="evenodd" d="M30 16.7086C31.7772 17.139 34.5 18.4581 34.5 22.5C34.5 26.5419 31.7772 27.861 30 28.2915V28.5H28.5H27H23.5987C23.0799 29.3967 22.1104 30 21 30C19.3431 30 18 28.6569 18 27C18 25.3431 19.3431 24 21 24C22.1104 24 23.0799 24.6033 23.5987 25.5H27V19.5C27 19.5 27 9 18 9C9 9 9 19.5 9 19.5V28.5H7.5H6V28.2915C4.22281 27.861 1.5 26.5419 1.5 22.5C1.5 18.4581 4.22281 17.139 6 16.7086V16.5H6.59869C7.68086 12.5224 10.5858 6 18 6C25.4142 6 28.3191 12.5224 29.4013 16.5H30V16.7086ZM30 25.125C30.75 24.75 31.5 24 31.5 22.5C31.5 21 30.75 20.25 30 19.875V25.125ZM4.5 22.5C4.5 21 5.25 20.25 6 19.875V25.125C5.25 24.75 4.5 24 4.5 22.5Z" fill="white"/>
</mask>
<g mask="url(#mask0_0_535)">
<rect id="Rectangle" width="36" height="36" fill="white" fill-opacity="0.7"/>
</g>
</g>
</g>
</svg>
