<svg width="24" height="24" viewBox="0 0 24 24" fill="none" xmlns="http://www.w3.org/2000/svg">
<mask id="mask0_0_458" style="mask-type:luminance" maskUnits="userSpaceOnUse" x="1" y="1" width="22" height="22">
<path fill-rule="evenodd" clip-rule="evenodd" d="M6.5 1C9.53757 1 12 3.46243 12 6.5C12 9.53757 9.53757 12 6.5 12C3.46243 12 1 9.53757 1 6.5C1 3.46243 3.46243 1 6.5 1ZM6.5 3C4.567 3 3 4.567 3 6.5C3 8.433 4.567 10 6.5 10C8.433 10 10 8.433 10 6.5C10 4.567 8.433 3 6.5 3ZM17.5 12C20.5376 12 23 14.4624 23 17.5C23 20.5376 20.5376 23 17.5 23C14.4624 23 12 20.5376 12 17.5C12 14.4624 14.4624 12 17.5 12ZM17.5 14C15.567 14 14 15.567 14 17.5C14 19.433 15.567 21 17.5 21C19.433 21 21 19.433 21 17.5C21 15.567 19.433 14 17.5 14ZM13.2071 7.41421V5.41421H18.2929L17.0858 4.20711L18.5 2.79289L22.0355 6.32843L21.9497 6.41421L22.0355 6.5L18.5 10.0355L17.0858 8.62132L18.2929 7.41421H13.2071ZM5.94975 16.4142H11.0355V18.4142H5.94975L7.15685 19.6213L5.74264 21.0355L2.20711 17.5L2.29289 17.4142L2.20711 17.3284L5.74264 13.7929L7.15685 15.2071L5.94975 16.4142Z" fill="white"/>
</mask>
<g mask="url(#mask0_0_458)">
<rect width="24" height="24" fill="white" fill-opacity="0.7"/>
</g>
</svg>
