<svg width="24" height="24" viewBox="0 0 24 24" fill="none" xmlns="http://www.w3.org/2000/svg">
<mask id="mask0_0_443" style="mask-type:luminance" maskUnits="userSpaceOnUse" x="1" y="1" width="23" height="22">
<path fill-rule="evenodd" clip-rule="evenodd" d="M22.806 7C22.806 3.68629 20.1197 1 16.806 1C13.4923 1 10.806 3.68629 10.806 7C10.806 10.3137 13.4923 13 16.806 13C20.1197 13 22.806 10.3137 22.806 7ZM12.806 7C12.806 4.79086 14.5969 3 16.806 3C19.0151 3 20.806 4.79086 20.806 7C20.806 9.20914 19.0151 11 16.806 11C14.5969 11 12.806 9.20914 12.806 7ZM4.73502 12.4724L5.05356 12.4274L5.65579 12.3515C6.62044 12.2413 7.38865 12.2136 7.9435 12.2908C10.9579 12.7101 13.5527 14.0029 14.7419 15.493C17.948 14.894 20.5004 15.0368 22.119 15.8093C23.9606 16.6882 24.4602 18.5149 22.9908 19.6988C22.4267 20.1533 21.4753 20.5976 20.2556 21.007L19.6741 21.1934C19.0743 21.3772 18.4213 21.5526 17.7268 21.7174L17.0188 21.8786C16.7785 21.931 16.534 21.9822 16.2857 22.032L15.5301 22.1773L14.7546 22.3138C14.6238 22.3358 14.4924 22.3574 14.3602 22.3786L13.5597 22.5009C13.0213 22.5792 12.4739 22.6507 11.9211 22.7148C11.2995 22.7868 10.6747 22.7079 10.0141 22.5016L9.75097 22.415C9.70828 22.4001 9.66595 22.3849 9.62367 22.3693L9.36795 22.2691C9.32456 22.2512 9.28057 22.2325 9.23566 22.213L8.79795 22.0111L8.45279 21.8404L7.81646 21.514C7.63957 21.4223 7.47443 21.338 7.31943 21.2607L6.88329 21.0496C6.06546 20.6677 5.55516 20.5222 5.00573 20.5125C4.73033 20.5077 4.35064 20.5568 3.90222 20.6541C3.59899 20.7199 3.27397 20.8054 2.93719 20.9059C2.73576 20.966 2.53782 21.0291 2.34719 21.0932L1.89452 21.2518L1.72672 21.3147L1 19.4514L1.29563 19.3415L1.40016 19.3042C1.70352 19.1969 2.02904 19.0897 2.36542 18.9894C2.74803 18.8752 3.12122 18.7771 3.47814 18.6996C4.06446 18.5724 4.58629 18.5049 5.04082 18.5128C6.05535 18.5306 6.84139 18.7886 8.17368 19.4516L9.46678 20.1112L9.87249 20.306L10.0997 20.4061L10.3074 20.4888C10.3411 20.5015 10.3745 20.5137 10.4078 20.5254L10.6101 20.5925C11.0209 20.7207 11.3716 20.7651 11.6909 20.7281L12.0737 20.6823L12.8333 20.5831L13.5826 20.4742L14.3186 20.3566L15.0386 20.2309C15.1571 20.2094 15.2748 20.1875 15.3917 20.1653L16.0821 20.0291L16.7494 19.8867L17.3905 19.739C17.495 19.714 17.5983 19.6888 17.7004 19.6635L18.297 19.5093L18.8603 19.3517L19.3875 19.1916C20.4039 18.8693 21.1863 18.5361 21.6317 18.2201L21.8158 18.0777C21.8307 18.0664 21.8359 18.0635 21.8382 18.0645L21.8234 18.0291C21.7666 17.9288 21.5882 17.772 21.2576 17.6143C20.1176 17.0702 18.0919 16.941 15.4259 17.402C15.3272 18.3349 14.506 18.9775 13.3095 19.0665C12.1343 19.1538 10.4785 18.7771 8.39638 17.9322L8.02453 17.7782L8.80229 15.9356C10.7937 16.7762 12.2947 17.1364 13.1612 17.072L13.256 17.0631L13.382 17.044L13.3486 16.9705C12.861 16.0202 10.695 14.7613 7.96278 14.3162L7.66793 14.2717C7.41251 14.2362 7.02 14.2393 6.52123 14.2776L6.06841 14.319C5.98884 14.3273 5.90728 14.3363 5.82382 14.346L5.30101 14.4123C5.21031 14.4247 5.1179 14.4377 5.02386 14.4515C4.60806 14.5122 4.16947 14.5841 3.71622 14.665C3.36866 14.727 3.02473 14.7921 2.69116 14.8581L1.5827 15.0894L1.14402 13.1381L1.7942 12.9991C2.29338 12.8959 2.8242 12.7926 3.36484 12.6961C3.83782 12.6117 4.29697 12.5364 4.73502 12.4724Z" fill="white"/>
</mask>
<g mask="url(#mask0_0_443)">
<rect width="24" height="24" fill="white" fill-opacity="0.7"/>
</g>
</svg>
